<svg width="77" height="32" viewBox="0 0 77 32" fill="none" xmlns="http://www.w3.org/2000/svg">
<path d="M17.1229 21V11.2H18.5789V21H17.1229ZM27.1635 17.332V21H25.7075V17.36C25.7075 16.9633 25.6235 16.604 25.4555 16.282C25.2922 15.9553 25.0659 15.6963 24.7765 15.505C24.4919 15.309 24.1675 15.211 23.8035 15.211C23.4395 15.211 23.1199 15.309 22.8445 15.505C22.5739 15.6963 22.3615 15.9553 22.2075 16.282C22.0582 16.604 21.9835 16.9633 21.9835 17.36V21H20.5275V14H21.9835V14.945C22.2262 14.5903 22.5202 14.3127 22.8655 14.112C23.2109 13.9067 23.6005 13.804 24.0345 13.804C24.6645 13.804 25.2105 13.965 25.6725 14.287C26.1392 14.609 26.5032 15.036 26.7645 15.568C27.0259 16.1 27.1589 16.688 27.1635 17.332ZM32.6508 21H30.7818L28.2268 13.986H29.7808L31.7128 19.32L33.6518 13.986H35.1988L32.6508 21ZM36.4757 14H37.9317V21H36.4757V14ZM37.2107 12.845C36.9914 12.845 36.8071 12.7727 36.6577 12.628C36.5084 12.4833 36.4337 12.3013 36.4337 12.082C36.4337 11.8673 36.5084 11.6877 36.6577 11.543C36.8071 11.3937 36.9914 11.319 37.2107 11.319C37.4254 11.319 37.6074 11.3937 37.7567 11.543C37.9061 11.6877 37.9807 11.8673 37.9807 12.082C37.9807 12.3013 37.9061 12.4833 37.7567 12.628C37.6074 12.7727 37.4254 12.845 37.2107 12.845ZM44.0358 15.456H42.5658L42.5588 21H41.1028L41.1098 15.456H39.9968V14H41.1098L41.1028 11.802H42.5588L42.5658 14H44.0358V15.456ZM48.3639 21.182C47.7199 21.182 47.1319 21.0163 46.5999 20.685C46.0726 20.3537 45.6503 19.9103 45.3329 19.355C45.0203 18.795 44.8639 18.1767 44.8639 17.5C44.8639 16.9867 44.9549 16.5083 45.1369 16.065C45.3189 15.617 45.5686 15.225 45.8859 14.889C46.2079 14.5483 46.5813 14.2823 47.0059 14.091C47.4306 13.8997 47.8833 13.804 48.3639 13.804C48.9006 13.804 49.3929 13.916 49.8409 14.14C50.2889 14.3593 50.6716 14.665 50.9889 15.057C51.3063 15.4443 51.5396 15.8923 51.6889 16.401C51.8383 16.905 51.8826 17.4417 51.8219 18.011H46.4249C46.4856 18.333 46.6023 18.6247 46.7749 18.886C46.9523 19.1427 47.1763 19.3457 47.4469 19.495C47.7223 19.6443 48.0279 19.7213 48.3639 19.726C48.7186 19.726 49.0406 19.6373 49.3299 19.46C49.6239 19.2827 49.8643 19.0377 50.0509 18.725L51.5279 19.068C51.2479 19.6887 50.8256 20.1973 50.2609 20.594C49.6963 20.986 49.0639 21.182 48.3639 21.182ZM46.3759 16.898H50.3519C50.3053 16.562 50.1863 16.2587 49.9949 15.988C49.8083 15.7127 49.5726 15.4957 49.2879 15.337C49.0079 15.1737 48.6999 15.092 48.3639 15.092C48.0326 15.092 47.7246 15.1713 47.4399 15.33C47.1599 15.4887 46.9266 15.7057 46.7399 15.981C46.5579 16.2517 46.4366 16.5573 46.3759 16.898ZM58.6342 10.5H60.0902V21H58.6342V19.971C58.4055 20.335 58.1069 20.629 57.7382 20.853C57.3695 21.0723 56.9379 21.182 56.4432 21.182C55.9345 21.182 55.4585 21.0863 55.0152 20.895C54.5719 20.7037 54.1799 20.44 53.8392 20.104C53.5032 19.7633 53.2395 19.3713 53.0482 18.928C52.8569 18.4847 52.7612 18.0087 52.7612 17.5C52.7612 16.9913 52.8569 16.5153 53.0482 16.072C53.2395 15.624 53.5032 15.232 53.8392 14.896C54.1799 14.5553 54.5719 14.2893 55.0152 14.098C55.4585 13.9067 55.9345 13.811 56.4432 13.811C56.9379 13.811 57.3695 13.923 57.7382 14.147C58.1069 14.3663 58.4055 14.6557 58.6342 15.015V10.5ZM56.4572 19.775C56.8679 19.775 57.2272 19.6747 57.5352 19.474C57.8432 19.2687 58.0812 18.9933 58.2492 18.648C58.4219 18.3027 58.5082 17.92 58.5082 17.5C58.5082 17.0753 58.4219 16.6903 58.2492 16.345C58.0765 15.9997 57.8362 15.7267 57.5282 15.526C57.2249 15.3207 56.8679 15.218 56.4572 15.218C56.0512 15.218 55.6802 15.3207 55.3442 15.526C55.0129 15.7313 54.7469 16.0067 54.5462 16.352C54.3502 16.6973 54.2522 17.08 54.2522 17.5C54.2522 17.9247 54.3525 18.3097 54.5532 18.655C54.7585 18.9957 55.0269 19.2687 55.3582 19.474C55.6942 19.6747 56.0605 19.775 56.4572 19.775Z" fill="#1BAC4B"/>
<path d="M1 16C1 7.71573 7.71573 1 16 1H61C69.2843 1 76 7.71573 76 16C76 24.2843 69.2843 31 61 31H16C7.71573 31 1 24.2843 1 16Z" stroke="#1BAC4B" stroke-width="2"/>
</svg>
