<svg width="68" height="32" viewBox="0 0 68 32" fill="none" xmlns="http://www.w3.org/2000/svg">
<path d="M0 16C0 7.16344 7.16344 0 16 0H52C60.8366 0 68 7.16344 68 16V16C68 24.8366 60.8366 32 52 32H16C7.16344 32 0 24.8366 0 16V16Z" fill="#1BAC4B"/>
<path d="M17.3713 21V11.2H18.8273V21H17.3713ZM27.216 16.611V21H25.76V16.968C25.76 16.6553 25.683 16.3707 25.529 16.114C25.3796 15.8573 25.1766 15.6543 24.92 15.505C24.668 15.351 24.3833 15.274 24.066 15.274C23.758 15.274 23.4756 15.351 23.219 15.505C22.9623 15.6543 22.757 15.8573 22.603 16.114C22.449 16.3707 22.372 16.6553 22.372 16.968V21H20.916V14H22.372V14.742C22.6146 14.4527 22.9133 14.224 23.268 14.056C23.6226 13.888 24.0053 13.804 24.416 13.804C24.934 13.804 25.4053 13.93 25.83 14.182C26.2546 14.434 26.5906 14.7723 26.838 15.197C27.09 15.6217 27.216 16.093 27.216 16.611ZM32.5575 21H30.6885L28.1335 13.986H29.6875L31.6195 19.32L33.5585 13.986H35.1055L32.5575 21ZM36.3824 14H37.8384V21H36.3824V14ZM37.1244 12.985C36.9004 12.985 36.7137 12.9127 36.5644 12.768C36.415 12.6233 36.3404 12.4413 36.3404 12.222C36.3404 12.0073 36.415 11.8277 36.5644 11.683C36.7137 11.5337 36.898 11.459 37.1174 11.459C37.3321 11.459 37.514 11.5337 37.6634 11.683C37.8127 11.8277 37.8874 12.0073 37.8874 12.222C37.8874 12.4413 37.8127 12.6233 37.6634 12.768C37.5187 12.9127 37.339 12.985 37.1244 12.985ZM43.4092 15.456H41.9392L41.9322 21H40.4762L40.4832 15.456H39.3702V14H40.4832L40.4762 11.802H41.9322L41.9392 14H43.4092V15.456ZM47.7784 21.182C47.1344 21.182 46.5464 21.0163 46.0144 20.685C45.4871 20.3537 45.0647 19.9103 44.7474 19.355C44.4347 18.795 44.2784 18.1767 44.2784 17.5C44.2784 16.9867 44.3694 16.5083 44.5514 16.065C44.7334 15.617 44.9831 15.225 45.3004 14.889C45.6224 14.5483 45.9957 14.2823 46.4204 14.091C46.8451 13.8997 47.2977 13.804 47.7784 13.804C48.3151 13.804 48.8074 13.916 49.2554 14.14C49.7034 14.3593 50.0861 14.665 50.4034 15.057C50.7207 15.4443 50.9541 15.8923 51.1034 16.401C51.2527 16.905 51.2971 17.4417 51.2364 18.011H45.8394C45.9001 18.333 46.0167 18.6247 46.1894 18.886C46.3667 19.1427 46.5907 19.3457 46.8614 19.495C47.1367 19.6443 47.4424 19.7213 47.7784 19.726C48.1331 19.726 48.4551 19.6373 48.7444 19.46C49.0384 19.2827 49.2787 19.0377 49.4654 18.725L50.9424 19.068C50.6624 19.6887 50.2401 20.1973 49.6754 20.594C49.1107 20.986 48.4784 21.182 47.7784 21.182ZM45.7904 16.898H49.7664C49.7197 16.562 49.6007 16.2587 49.4094 15.988C49.2227 15.7127 48.9871 15.4957 48.7024 15.337C48.4224 15.1737 48.1144 15.092 47.7784 15.092C47.4471 15.092 47.1391 15.1713 46.8544 15.33C46.5744 15.4887 46.3411 15.7057 46.1544 15.981C45.9724 16.2517 45.8511 16.5573 45.7904 16.898Z" fill="white"/>
</svg>
