<svg width="24" height="26" viewBox="0 0 24 26" fill="none" xmlns="http://www.w3.org/2000/svg">
<g clip-path="url(#clip0_115_395)">
<path d="M20.7 15.5251C20.0333 14.8899 19.1478 14.5356 18.227 14.5356C17.3062 14.5356 16.4206 14.8899 15.754 15.5251L15.345 15.9251C12.7894 14.7597 10.7435 12.7067 9.58698 10.1471L9.97498 9.75311C10.6193 9.10079 10.9839 8.2229 10.9912 7.30603C10.9984 6.38916 10.6479 5.50559 10.014 4.84311L7.86198 2.52511C7.20275 1.89496 6.32804 1.53989 5.4161 1.53227C4.50417 1.52465 3.62364 1.86506 2.95398 2.48411C2.95398 2.48411 1.88698 3.41411 1.86198 3.43811C-6.03302 11.7071 13.785 31.5381 22.062 23.6381C22.086 23.6131 23.016 22.5471 23.016 22.5471C23.6567 21.8782 24.0075 20.9836 23.9924 20.0575C23.9772 19.1314 23.5972 18.2487 22.935 17.6011L20.7 15.5251ZM20.857 20.4671C20.832 20.4911 19.908 21.5501 19.908 21.5501C14.655 26.2731 -0.910022 11.6271 3.94998 5.60011C3.94998 5.60011 5.00898 4.67611 5.03398 4.65111C5.11909 4.56064 5.23555 4.50611 5.35954 4.49868C5.48352 4.49124 5.60567 4.53146 5.70098 4.61111L7.85398 6.92411C7.9033 6.97019 7.94245 7.02605 7.96895 7.08812C7.99544 7.15019 8.00869 7.21711 8.00784 7.2846C8.007 7.35209 7.99207 7.41865 7.96403 7.48004C7.93598 7.54143 7.89544 7.59629 7.84498 7.64111L6.73698 8.76711C6.53245 8.97502 6.39297 9.23804 6.3356 9.52399C6.27824 9.80994 6.30547 10.1064 6.41398 10.3771C7.15916 12.372 8.32455 14.1834 9.83114 15.6884C11.3377 17.1935 13.1503 18.357 15.146 19.1001C15.4146 19.2029 15.7072 19.2262 15.9887 19.1673C16.2703 19.1085 16.529 18.9699 16.734 18.7681L17.868 17.6501C18.158 17.4361 18.309 17.4381 18.616 17.6901L20.854 19.7641C20.9465 19.8577 20.9984 19.984 20.9984 20.1156C20.9984 20.2472 20.9465 20.3735 20.854 20.4671H20.857ZM15 9.50011V5.02611C15 4.82836 15.0587 4.63506 15.1686 4.47065C15.2785 4.30624 15.4346 4.1781 15.6173 4.10243C15.8 4.02676 16.0011 4.00696 16.195 4.04553C16.389 4.0841 16.5671 4.1793 16.707 4.31911L17.894 5.50611L21.437 1.94211C21.7192 1.66813 22.0978 1.51599 22.4911 1.51845C22.8845 1.52091 23.2611 1.67777 23.5399 1.95526C23.8187 2.23275 23.9774 2.60864 23.9817 3.00197C23.986 3.3953 23.8356 3.77458 23.563 4.05811L20.015 7.62711L21.181 8.79311C21.3208 8.93296 21.416 9.11113 21.4546 9.30508C21.4931 9.49903 21.4733 9.70007 21.3977 9.88277C21.322 10.0655 21.1938 10.2216 21.0294 10.3315C20.865 10.4414 20.6717 10.5001 20.474 10.5001H16C15.7348 10.5001 15.4804 10.3948 15.2929 10.2072C15.1053 10.0197 15 9.76533 15 9.50011Z" fill="#374957"/>
</g>
<rect x="13" y="0.5" width="11" height="12" fill="#F8F8F8"/>
<defs>
<clipPath id="clip0_115_395">
<rect width="24" height="24" fill="white" transform="translate(0 1.5)"/>
</clipPath>
</defs>
</svg>
