<svg width="25" height="24" viewBox="0 0 25 24" fill="none" xmlns="http://www.w3.org/2000/svg">
<g clip-path="url(#clip0_120_1070)">
<path d="M17.7931 17.2926L12.3281 11.8276C11.578 11.0777 10.5608 10.6564 9.50012 10.6564C8.43947 10.6564 7.42223 11.0777 6.67212 11.8276L5.79312 12.7066C5.60557 12.8941 5.50018 13.1484 5.50012 13.4136V16.9996C5.50012 17.53 5.71084 18.0387 6.08591 18.4138C6.46098 18.7889 6.96969 18.9996 7.50012 18.9996H17.0861C17.2839 18.9995 17.4772 18.9409 17.6416 18.831C17.806 18.7211 17.9341 18.5649 18.0098 18.3822C18.0855 18.1995 18.1053 17.9985 18.0667 17.8045C18.0281 17.6106 17.9329 17.4324 17.7931 17.2926Z" fill="white"/>
<path d="M16.5 10.5003C17.8807 10.5003 19 9.38102 19 8.00031C19 6.61959 17.8807 5.50031 16.5 5.50031C15.1193 5.50031 14 6.61959 14 8.00031C14 9.38102 15.1193 10.5003 16.5 10.5003Z" fill="white"/>
<path d="M23.0001 15.4997C22.6023 15.4997 22.2208 15.6577 21.9395 15.939C21.6582 16.2203 21.5001 16.6019 21.5001 16.9997V18.4997C21.5001 19.1627 21.2367 19.7986 20.7679 20.2674C20.299 20.7363 19.6632 20.9997 19.0001 20.9997H17.5001C17.1023 20.9997 16.7208 21.1577 16.4395 21.439C16.1582 21.7203 16.0001 22.1018 16.0001 22.4997C16.0001 22.8975 16.1582 23.279 16.4395 23.5603C16.7208 23.8416 17.1023 23.9997 17.5001 23.9997H19.0001C20.4583 23.9981 21.8563 23.4181 22.8875 22.387C23.9186 21.3559 24.4985 19.9579 24.5001 18.4997V16.9997C24.5001 16.6019 24.3421 16.2203 24.0608 15.939C23.7795 15.6577 23.3979 15.4997 23.0001 15.4997Z" fill="white"/>
<path d="M2 8.5C2.39782 8.5 2.77936 8.34196 3.06066 8.06066C3.34196 7.77936 3.5 7.39782 3.5 7V5.5C3.5 4.83696 3.76339 4.20107 4.23223 3.73223C4.70107 3.26339 5.33696 3 6 3H7.5C7.89782 3 8.27936 2.84196 8.56066 2.56066C8.84196 2.27936 9 1.89782 9 1.5C9 1.10218 8.84196 0.720644 8.56066 0.43934C8.27936 0.158035 7.89782 0 7.5 0L6 0C4.5418 0.00158817 3.14377 0.581561 2.11267 1.61267C1.08156 2.64377 0.501588 4.0418 0.5 5.5L0.5 7C0.5 7.39782 0.658035 7.77936 0.93934 8.06066C1.22064 8.34196 1.60218 8.5 2 8.5Z" fill="white"/>
<path d="M7.5 20.9997H6C5.33696 20.9997 4.70107 20.7363 4.23223 20.2674C3.76339 19.7986 3.5 19.1627 3.5 18.4997V16.9997C3.5 16.6019 3.34196 16.2203 3.06066 15.939C2.77936 15.6577 2.39782 15.4997 2 15.4997C1.60218 15.4997 1.22064 15.6577 0.93934 15.939C0.658035 16.2203 0.5 16.6019 0.5 16.9997L0.5 18.4997C0.501588 19.9579 1.08156 21.3559 2.11267 22.387C3.14377 23.4181 4.5418 23.9981 6 23.9997H7.5C7.89782 23.9997 8.27936 23.8416 8.56066 23.5603C8.84196 23.279 9 22.8975 9 22.4997C9 22.1018 8.84196 21.7203 8.56066 21.439C8.27936 21.1577 7.89782 20.9997 7.5 20.9997Z" fill="white"/>
<path d="M19.0001 0H17.5001C17.1023 0 16.7208 0.158035 16.4395 0.43934C16.1582 0.720644 16.0001 1.10218 16.0001 1.5C16.0001 1.89782 16.1582 2.27936 16.4395 2.56066C16.7208 2.84196 17.1023 3 17.5001 3H19.0001C19.6632 3 20.299 3.26339 20.7679 3.73223C21.2367 4.20107 21.5001 4.83696 21.5001 5.5V7C21.5001 7.39782 21.6582 7.77936 21.9395 8.06066C22.2208 8.34196 22.6023 8.5 23.0001 8.5C23.3979 8.5 23.7795 8.34196 24.0608 8.06066C24.3421 7.77936 24.5001 7.39782 24.5001 7V5.5C24.4985 4.0418 23.9186 2.64377 22.8875 1.61267C21.8563 0.581561 20.4583 0.00158817 19.0001 0V0Z" fill="white"/>
</g>
<defs>
<clipPath id="clip0_120_1070">
<rect width="24" height="24" fill="white" transform="translate(0.5)"/>
</clipPath>
</defs>
</svg>
