<svg width="24" height="24" viewBox="0 0 24 24" fill="none" xmlns="http://www.w3.org/2000/svg">
<g clip-path="url(#clip0_101_3023)">
<path d="M6.50005 15.9997C6.79672 15.9997 7.08673 16.0877 7.3334 16.2525C7.58008 16.4173 7.77233 16.6516 7.88587 16.9257C7.9994 17.1998 8.0291 17.5014 7.97122 17.7924C7.91335 18.0833 7.77049 18.3506 7.56071 18.5604C7.35093 18.7702 7.08365 18.913 6.79268 18.9709C6.50171 19.0288 6.20011 18.9991 5.92602 18.8855C5.65193 18.772 5.41766 18.5798 5.25284 18.3331C5.08802 18.0864 5.00005 17.7964 5.00005 17.4997C5.00005 17.1019 5.15808 16.7204 5.43939 16.4391C5.72069 16.1578 6.10222 15.9997 6.50005 15.9997ZM9.50005 23.8607C10.8873 23.602 12.1806 22.9781 13.2466 22.0534C14.3127 21.1287 15.1129 19.9366 15.565 18.5997C15.9929 17.3635 16.1029 16.0396 15.885 14.7497L16.566 14.0607C16.8455 13.7785 17.0016 13.3969 17 12.9997V10.9997H17.5C17.8284 10.9997 18.1534 10.9351 18.4568 10.8094C18.7601 10.6838 19.0357 10.4996 19.2678 10.2675C19.5 10.0353 19.6841 9.75975 19.8097 9.45644C19.9354 9.15312 20 8.82803 20 8.49973V7.99973H21.251C21.7421 7.99956 22.2223 7.8555 22.6323 7.58536C23.0423 7.31521 23.3641 6.93083 23.558 6.47973C23.9181 5.65094 24.0613 4.74413 23.974 3.84473C23.8569 2.77859 23.347 1.79426 22.5438 1.08347C21.7406 0.372682 20.7015 -0.0136517 19.629 -0.000274213C18.9061 -0.00219233 18.19 0.139293 17.5221 0.415993C16.8542 0.692692 16.2478 1.09911 15.738 1.61173L9.23805 8.11173C7.95097 7.89646 6.63041 8.00857 5.39805 8.43773C3.60806 9.0557 2.09533 10.2886 1.12894 11.9171C0.162553 13.5456 -0.194825 15.4641 0.120381 17.3314C0.435587 19.1986 1.40294 20.8935 2.85035 22.1145C4.29777 23.3356 6.13139 24.0036 8.02505 23.9997C8.51992 23.9984 9.01363 23.9519 9.50005 23.8607ZM9.31505 11.1997C9.57115 11.2709 9.84157 11.2728 10.0986 11.2052C10.3557 11.1375 10.5902 11.0028 10.778 10.8147L17.859 3.73473C18.0908 3.50124 18.3666 3.31604 18.6704 3.18988C18.9742 3.06371 19.3001 2.99908 19.629 2.99973C19.957 2.99193 20.2764 3.10452 20.527 3.31623C20.7776 3.52793 20.942 3.82408 20.989 4.14873C21.0183 4.4349 20.9911 4.72402 20.909 4.99973H19.5C18.837 4.99973 18.2011 5.26312 17.7323 5.73196C17.2634 6.2008 17 6.83669 17 7.49973V7.99973H16.5C15.837 7.99973 15.2011 8.26312 14.7323 8.73196C14.2634 9.2008 14 9.83669 14 10.4997V12.3837L13.178 13.2147C12.9919 13.4029 12.8589 13.6371 12.7925 13.8933C12.7261 14.1496 12.7287 14.4188 12.8 14.6737C13.0787 15.6431 13.0528 16.6746 12.726 17.6287C12.4503 18.4307 11.9751 19.1493 11.3452 19.7171C10.7153 20.2848 9.95129 20.683 9.1251 20.8742C8.29891 21.0655 7.43766 21.0434 6.62235 20.8101C5.80703 20.5768 5.06444 20.14 4.46442 19.5408C3.8644 18.9415 3.42665 18.1994 3.19235 17.3844C2.95805 16.5694 2.9349 15.7082 3.12507 14.8818C3.31524 14.0553 3.71248 13.2908 4.27944 12.6602C4.8464 12.0295 5.56444 11.5535 6.36605 11.2767C6.87825 11.1 7.41621 11.0094 7.95805 11.0087C8.41695 11.0105 8.87348 11.0747 9.31505 11.1997Z" fill="#374957"/>
</g>
<defs>
<clipPath id="clip0_101_3023">
<rect width="24" height="24" fill="white"/>
</clipPath>
</defs>
</svg>
