<svg width="25" height="26" viewBox="0 0 25 26" fill="none" xmlns="http://www.w3.org/2000/svg">
<g clip-path="url(#clip0_120_1062)">
<path d="M5.14897 6.33958L1.06668 10.4219C0.403786 11.1165 0.0339355 12.0398 0.0339355 13C0.0339355 13.9602 0.403786 14.8835 1.06668 15.5781L5.14897 19.6604C5.2931 19.8097 5.46552 19.9287 5.65615 20.0106C5.84678 20.0925 6.05181 20.1356 6.25928 20.1374C6.46675 20.1392 6.6725 20.0996 6.86452 20.0211C7.05655 19.9425 7.231 19.8265 7.37771 19.6798C7.52442 19.5331 7.64044 19.3586 7.719 19.1666C7.79757 18.9746 7.8371 18.7688 7.8353 18.5614C7.83349 18.3539 7.79039 18.1489 7.7085 17.9582C7.62661 17.7676 7.50758 17.5952 7.35834 17.451L4.46355 14.5542L23.474 14.5302C23.8884 14.5302 24.2858 14.3656 24.5788 14.0726C24.8718 13.7795 25.0365 13.3821 25.0365 12.9677C25.0365 12.5533 24.8718 12.1559 24.5788 11.8629C24.2858 11.5698 23.8884 11.4052 23.474 11.4052L4.47918 11.4292L7.35834 8.54896C7.64297 8.25427 7.80046 7.85958 7.7969 7.44989C7.79334 7.04021 7.62901 6.64832 7.33931 6.35862C7.04961 6.06892 6.65772 5.90459 6.24803 5.90103C5.83835 5.89747 5.44366 6.05496 5.14897 6.33958V6.33958Z" fill="white"/>
</g>
<defs>
<clipPath id="clip0_120_1062">
<rect width="25" height="25" fill="white" transform="translate(0 0.5)"/>
</clipPath>
</defs>
</svg>
