<svg width="50" height="50" viewBox="0 0 50 50" fill="none" xmlns="http://www.w3.org/2000/svg">
<g clip-path="url(#clip0_101_2782)">
<path d="M46.6666 3.31755C42.8916 -0.447029 36.2499 -2.43036 24.9645 5.41755C13.6895 -2.42828 7.03744 -0.447029 3.27078 3.31755C-0.49589 7.08214 -2.47922 13.7301 5.37078 25.0009C-2.47922 36.2717 -0.493807 42.9176 3.27078 46.6842C4.30933 47.7545 5.55502 48.6021 6.93186 49.1751C8.30871 49.7482 9.78786 50.0349 11.2791 50.0176C14.8208 50.0176 19.3145 48.5592 24.9645 44.6134C30.6166 48.5488 35.1062 50.0196 38.6499 50.0196C40.1413 50.0376 41.6206 49.7512 42.9976 49.1781C44.3745 48.605 45.6201 47.7571 46.6583 46.6863C50.4166 42.9176 52.4104 36.2717 44.5583 25.0009C52.4104 13.7301 50.4166 7.08422 46.6666 3.31755ZM38.4833 6.26755C39.1756 6.24529 39.8653 6.36442 40.51 6.61767C41.1548 6.87092 41.7411 7.25297 42.2333 7.74047C45.0562 10.5613 43.452 15.2405 40.5187 19.8238C39.0479 18.1134 37.4208 16.3342 35.5187 14.4405C33.6166 12.5467 31.8437 10.9217 30.1333 9.45089C32.5823 7.66305 35.4656 6.56385 38.4833 6.26755ZM36.702 25.0009C34.6854 27.4405 32.6229 29.6134 31.102 31.1342C29.5812 32.6551 27.4041 34.7176 24.9645 36.7321C22.5249 34.7176 20.3499 32.6571 18.8291 31.1342C17.3083 29.6113 15.2437 27.4405 13.2291 25.0009C15.2437 22.5613 17.3062 20.3884 18.8291 18.8676C20.352 17.3467 22.5229 15.2821 24.9645 13.2676C27.4062 15.2821 29.5791 17.3446 31.102 18.8676C32.6249 20.3905 34.6854 22.5613 36.702 25.0009ZM7.69578 7.74047C8.18784 7.25287 8.77418 6.87076 9.41896 6.6175C10.0637 6.36425 10.7534 6.24517 11.4458 6.26755C14.4626 6.56511 17.3445 7.66579 19.7916 9.45505C18.0791 10.9259 16.2999 12.5509 14.4062 14.4446C12.5124 16.3384 10.8812 18.1259 9.41036 19.828C6.47911 15.2363 4.87286 10.5613 7.69578 7.74047ZM7.69578 42.2613C4.87286 39.4405 6.47911 34.7613 9.41036 30.178C10.8812 31.8884 12.5083 33.6676 14.4104 35.5613C16.3124 37.4551 18.0812 39.103 19.7833 40.5613C15.1874 43.4821 10.5166 45.0801 7.69578 42.2613ZM42.2333 42.2613C39.4104 45.0821 34.7333 43.4821 30.1499 40.5571C31.8541 39.0988 33.6416 37.4426 35.527 35.5571C37.4124 33.6717 39.0479 31.8842 40.527 30.1738C43.452 34.7655 45.0562 39.4405 42.2333 42.2613Z" fill="#374957"/>
<path d="M25.0002 29.1673C27.3013 29.1673 29.1668 27.3018 29.1668 25.0006C29.1668 22.6995 27.3013 20.834 25.0002 20.834C22.699 20.834 20.8335 22.6995 20.8335 25.0006C20.8335 27.3018 22.699 29.1673 25.0002 29.1673Z" fill="#374957"/>
</g>
<defs>
<clipPath id="clip0_101_2782">
<rect width="50" height="50" fill="white"/>
</clipPath>
</defs>
</svg>
