<svg width="25" height="24" viewBox="0 0 25 24" fill="none" xmlns="http://www.w3.org/2000/svg">
<path d="M12.5 4.99997C13.8807 4.99997 15 3.88069 15 2.49998C15 1.11928 13.8807 0 12.5 0C11.1193 0 10 1.11928 10 2.49998C10 3.88069 11.1193 4.99997 12.5 4.99997Z" fill="white"/>
<path d="M12.5 14.5C13.8807 14.5 15 13.3807 15 12C15 10.6193 13.8807 9.50003 12.5 9.50003C11.1193 9.50003 10 10.6193 10 12C10 13.3807 11.1193 14.5 12.5 14.5Z" fill="white"/>
<path d="M12.5 24C13.8807 24 15 22.8807 15 21.5C15 20.1193 13.8807 19.0001 12.5 19.0001C11.1193 19.0001 10 20.1193 10 21.5C10 22.8807 11.1193 24 12.5 24Z" fill="white"/>
</svg>
