<svg width="25" height="26" viewBox="0 0 25 26" fill="none" xmlns="http://www.w3.org/2000/svg">
<g clip-path="url(#clip0_120_1066)">
<path d="M21.2 15.5251C20.5333 14.8899 19.6478 14.5356 18.727 14.5356C17.8062 14.5356 16.9206 14.8899 16.254 15.5251L15.845 15.9251C13.2894 14.7597 11.2435 12.7067 10.087 10.1471L10.475 9.7531C11.1193 9.10077 11.4839 8.22289 11.4912 7.30601C11.4984 6.38914 11.1479 5.50557 10.514 4.8431L8.36198 2.5251C7.70275 1.89494 6.82804 1.53987 5.9161 1.53225C5.00417 1.52464 4.12364 1.86504 3.45398 2.4841C3.45398 2.4841 2.38698 3.4141 2.36198 3.4381C-5.53302 11.7071 14.285 31.5381 22.562 23.6381C22.586 23.6131 23.516 22.5471 23.516 22.5471C24.1567 21.8782 24.5075 20.9835 24.4924 20.0574C24.4772 19.1313 24.0972 18.2486 23.435 17.6011L21.2 15.5251ZM21.357 20.4671C21.332 20.4911 20.408 21.5501 20.408 21.5501C15.155 26.2731 -0.410022 11.6271 4.44998 5.6001C4.44998 5.6001 5.50898 4.6761 5.53398 4.6511C5.61909 4.56063 5.73555 4.5061 5.85954 4.49866C5.98352 4.49123 6.10567 4.53145 6.20098 4.6111L8.35398 6.9241C8.4033 6.97017 8.44245 7.02603 8.46895 7.08811C8.49544 7.15018 8.50869 7.2171 8.50784 7.28458C8.507 7.35207 8.49207 7.41864 8.46403 7.48003C8.43598 7.54142 8.39544 7.59627 8.34498 7.6411L7.23698 8.7671C7.03245 8.97501 6.89297 9.23803 6.8356 9.52397C6.77824 9.80992 6.80547 10.1064 6.91398 10.3771C7.65916 12.372 8.82455 14.1834 10.3311 15.6884C11.8377 17.1934 13.6503 18.357 15.646 19.1001C15.9146 19.2028 16.2072 19.2262 16.4887 19.1673C16.7703 19.1084 17.029 18.9699 17.234 18.7681L18.368 17.6501C18.658 17.4361 18.809 17.4381 19.116 17.6901L21.354 19.7641C21.4465 19.8577 21.4984 19.984 21.4984 20.1156C21.4984 20.2472 21.4465 20.3735 21.354 20.4671H21.357ZM15.5 9.5001V5.0261C15.5 4.82835 15.5587 4.63505 15.6686 4.47064C15.7785 4.30623 15.9346 4.17809 16.1173 4.10242C16.3 4.02675 16.5011 4.00695 16.695 4.04551C16.889 4.08408 17.0671 4.17929 17.207 4.3191L18.394 5.5061L21.937 1.9421C22.2192 1.66812 22.5978 1.51597 22.9911 1.51843C23.3845 1.52089 23.7611 1.67776 24.0399 1.95524C24.3187 2.23273 24.4774 2.60862 24.4817 3.00195C24.486 3.39528 24.3356 3.77456 24.063 4.0581L20.515 7.6271L21.681 8.7931C21.8208 8.93295 21.916 9.11111 21.9546 9.30507C21.9931 9.49902 21.9733 9.70005 21.8977 9.88275C21.822 10.0655 21.6938 10.2216 21.5294 10.3315C21.365 10.4414 21.1717 10.5001 20.974 10.5001H16.5C16.2348 10.5001 15.9804 10.3947 15.7929 10.2072C15.6053 10.0197 15.5 9.76531 15.5 9.5001Z" fill="white"/>
</g>
<rect x="13.5" y="0.5" width="11" height="12" fill="#1BAC4B"/>
<defs>
<clipPath id="clip0_120_1066">
<rect width="24" height="24" fill="white" transform="translate(0.5 1.5)"/>
</clipPath>
</defs>
</svg>
