<svg width="26" height="25" viewBox="0 0 26 25" fill="none" xmlns="http://www.w3.org/2000/svg">
<g clip-path="url(#clip0_101_1710)">
<path d="M18.5 25C10.351 25.229 -4.07502 10.787 2.86198 2.938C2.88698 2.914 3.95398 1.984 3.95398 1.984C4.62365 1.36494 5.50417 1.02454 6.4161 1.03216C7.32804 1.03978 8.20275 1.39484 8.86198 2.025L11.014 4.343C11.6479 5.00548 11.9984 5.88905 11.9912 6.80592C11.9839 7.72279 11.6193 8.60068 10.975 9.253L10.587 9.647C11.7425 12.2059 13.7869 14.2588 16.341 15.425L16.752 15.025C17.4186 14.3901 18.3039 14.036 19.2245 14.036C20.1451 14.036 21.0304 14.3901 21.697 15.025L23.934 17.1C24.5966 17.7473 24.9769 18.63 24.9923 19.5561C25.0076 20.4823 24.6568 21.3771 24.016 22.046C24.016 22.046 23.086 23.112 23.062 23.137C22.4627 23.734 21.7509 24.2061 20.9678 24.5259C20.1847 24.8457 19.3459 25.0069 18.5 25ZM4.94998 5.1C0.0909808 11.118 15.644 25.773 20.905 21.05C20.905 21.05 21.829 19.991 21.854 19.967C21.9477 19.8732 22.0004 19.7461 22.0004 19.6135C22.0004 19.4809 21.9477 19.3538 21.854 19.26L19.616 17.186C19.316 16.936 19.147 16.933 18.869 17.146L17.733 18.264C17.5281 18.4656 17.2696 18.604 16.9882 18.6629C16.7069 18.7218 16.4145 18.6985 16.146 18.596C14.1506 17.8535 12.3382 16.6906 10.8316 15.1863C9.32502 13.6819 8.15948 11.8713 7.41398 9.877C7.30548 9.60629 7.27824 9.30982 7.33561 9.02388C7.39297 8.73793 7.53245 8.47491 7.73698 8.267L8.84498 7.141C8.89544 7.09618 8.93599 7.04132 8.96403 6.97993C8.99208 6.91854 9.007 6.85197 9.00785 6.78449C9.00869 6.717 8.99545 6.65008 8.96895 6.58801C8.94246 6.52594 8.9033 6.47008 8.85398 6.424L6.69998 4.106C6.60467 4.02635 6.48253 3.98613 6.35854 3.99356C6.23455 4.001 6.11809 4.05553 6.03298 4.146C6.00898 4.171 4.94998 5.1 4.94998 5.1ZM25 10.5C24.9971 7.98134 23.9952 5.56667 22.2143 3.7857C20.4333 2.00474 18.0186 1.00291 15.5 1C15.1022 1 14.7206 1.15804 14.4393 1.43934C14.158 1.72064 14 2.10218 14 2.5C14 2.89783 14.158 3.27936 14.4393 3.56066C14.7206 3.84196 15.1022 4 15.5 4C17.2232 4.00212 18.8753 4.68762 20.0938 5.90614C21.3124 7.12467 21.9979 8.77674 22 10.5C22 10.8978 22.158 11.2794 22.4393 11.5607C22.7206 11.842 23.1022 12 23.5 12C23.8978 12 24.2793 11.842 24.5606 11.5607C24.8419 11.2794 25 10.8978 25 10.5ZM20 10.5C19.9987 9.30693 19.5241 8.16311 18.6805 7.31948C17.8369 6.47585 16.693 6.00132 15.5 6C15.1022 6 14.7206 6.15804 14.4393 6.43934C14.158 6.72064 14 7.10218 14 7.5C14 7.89783 14.158 8.27936 14.4393 8.56066C14.7206 8.84197 15.1022 9 15.5 9C15.8978 9 16.2793 9.15804 16.5606 9.43934C16.8419 9.72064 17 10.1022 17 10.5C17 10.8978 17.158 11.2794 17.4393 11.5607C17.7206 11.842 18.1022 12 18.5 12C18.8978 12 19.2793 11.842 19.5606 11.5607C19.8419 11.2794 20 10.8978 20 10.5Z" fill="#374957"/>
</g>
<defs>
<clipPath id="clip0_101_1710">
<rect width="24" height="24" fill="white" transform="translate(1 1)"/>
</clipPath>
</defs>
</svg>
