<svg width="25" height="25" viewBox="0 0 25 25" fill="none" xmlns="http://www.w3.org/2000/svg">
<g clip-path="url(#clip0_101_1913)">
<path d="M19.5 1H6.5C5.0418 1.00159 3.64377 1.58156 2.61267 2.61267C1.58156 3.64377 1.00159 5.0418 1 6.5L1 19.5C1.00159 20.9582 1.58156 22.3562 2.61267 23.3873C3.64377 24.4184 5.0418 24.9984 6.5 25H19.5C20.9582 24.9984 22.3562 24.4184 23.3873 23.3873C24.4184 22.3562 24.9984 20.9582 25 19.5V6.5C24.9984 5.0418 24.4184 3.64377 23.3873 2.61267C22.3562 1.58156 20.9582 1.00159 19.5 1V1ZM22 19.5C22 20.163 21.7366 20.7989 21.2678 21.2678C20.7989 21.7366 20.163 22 19.5 22H19V21C19 19.4087 18.3679 17.8826 17.2426 16.7574C16.1174 15.6321 14.5913 15 13 15C11.4087 15 9.88258 15.6321 8.75736 16.7574C7.63214 17.8826 7 19.4087 7 21V22H6.5C5.83696 22 5.20107 21.7366 4.73223 21.2678C4.26339 20.7989 4 20.163 4 19.5V6.5C4 5.83696 4.26339 5.20107 4.73223 4.73223C5.20107 4.26339 5.83696 4 6.5 4H19.5C20.163 4 20.7989 4.26339 21.2678 4.73223C21.7366 5.20107 22 5.83696 22 6.5V19.5Z" fill="#374957"/>
<path d="M12.9999 12.9997C14.9329 12.9997 16.4999 11.4327 16.4999 9.49969C16.4999 7.5667 14.9329 5.99969 12.9999 5.99969C11.0669 5.99969 9.49988 7.5667 9.49988 9.49969C9.49988 11.4327 11.0669 12.9997 12.9999 12.9997Z" fill="#374957"/>
</g>
<defs>
<clipPath id="clip0_101_1913">
<rect width="24" height="24" fill="white" transform="translate(1 1)"/>
</clipPath>
</defs>
</svg>
