<svg width="15" height="16" viewBox="0 0 15 16" fill="none" xmlns="http://www.w3.org/2000/svg">
<g clip-path="url(#clip0_109_258)">
<path d="M13.9713 10.1131C12.6156 8.7575 10.2731 8 7.49564 8C4.75689 8.0125 2.33939 8.80188 1.02877 10.1131C0.698817 10.4398 0.437849 10.8294 0.261345 11.2589C0.084841 11.6883 -0.00360115 12.1488 0.00126627 12.6131L0.0493913 13.5381C0.0507136 14.0585 0.258178 14.5571 0.626355 14.9248C0.994532 15.2925 1.49342 15.4993 2.01377 15.5C2.05439 15.5 3.54627 15.3069 3.54627 15.3069C4.03516 15.2891 4.49984 15.0896 4.84956 14.7475C5.19928 14.4054 5.40892 13.9453 5.43752 13.4569L5.45627 13.3675C6.10738 13.1204 6.79859 12.9958 7.49502 13C8.19476 13.009 8.888 13.1357 9.54564 13.375L9.56314 13.4556C9.59173 13.9439 9.80127 14.404 10.1509 14.7461C10.5005 15.0881 10.965 15.2876 11.4538 15.3056C11.4538 15.3056 12.9456 15.5 12.9863 15.5C13.4995 15.5022 13.9931 15.3025 14.3604 14.944C14.7277 14.5855 14.9392 14.0969 14.9494 13.5837L15 12.5625C14.9992 12.1065 14.9078 11.6551 14.7312 11.2347C14.5546 10.8142 14.2963 10.433 13.9713 10.1131ZM13.0756 13.5356C13.0758 13.5546 13.0698 13.5732 13.0585 13.5885C13.0473 13.6038 13.0313 13.6151 13.0131 13.6206L11.6463 13.4412C11.3744 13.4375 11.4544 13.34 11.4144 13.1506L11.2756 12.4938C11.2445 12.3463 11.1784 12.2086 11.0827 12.0922C10.9871 11.9758 10.8648 11.8841 10.7263 11.825C9.71001 11.379 8.61473 11.141 7.50502 11.125C6.38515 11.1305 5.27895 11.3713 4.25814 11.8319C4.12319 11.8923 4.00443 11.9837 3.91156 12.0987C3.81869 12.2137 3.75434 12.3491 3.72377 12.4938L3.58502 13.1506C3.54564 13.3381 3.62439 13.4375 3.35314 13.4412L1.98689 13.6206C1.95064 13.6081 1.92439 13.5662 1.92439 13.4881L1.87502 12.5625C1.87645 12.3525 1.91963 12.1449 2.00203 11.9518C2.08444 11.7587 2.20442 11.5838 2.35502 11.4375C3.29252 10.5 5.31627 9.88375 7.50439 9.875C9.69252 9.86625 11.6706 10.4644 12.645 11.4375C12.9392 11.7207 13.1114 12.1075 13.125 12.5156L13.0756 13.5356ZM1.87502 3.92125V1.125C1.87502 0.95924 1.94086 0.800269 2.05807 0.683058C2.17528 0.565848 2.33426 0.5 2.50002 0.5H5.29627C5.41986 0.500026 5.54067 0.536696 5.64343 0.605374C5.74618 0.674052 5.82627 0.771654 5.87356 0.885841C5.92086 1.00003 5.93324 1.12567 5.90913 1.24689C5.88503 1.36812 5.82552 1.47947 5.73814 1.56687L5.05689 2.25L7.81252 4.8125L11.55 1.375C11.7342 1.21789 11.972 1.13811 12.2137 1.15236C12.4553 1.16662 12.6821 1.2738 12.8465 1.45147C13.0109 1.62914 13.1003 1.86352 13.0958 2.10556C13.0913 2.3476 12.9934 2.57853 12.8225 2.75L8.98877 6.27875C8.67412 6.58472 8.25138 6.75408 7.81252 6.75C7.5893 6.75001 7.36828 6.70584 7.16222 6.62002C6.95616 6.53421 6.76912 6.40845 6.61189 6.25L3.73002 3.57438L2.94189 4.36313C2.85448 4.45051 2.74313 4.51001 2.62191 4.53411C2.50069 4.55822 2.37504 4.54584 2.26086 4.49855C2.14667 4.45125 2.04907 4.37117 1.98039 4.26841C1.91171 4.16566 1.87504 4.04484 1.87502 3.92125Z" fill="#D52323"/>
</g>
<defs>
<clipPath id="clip0_109_258">
<rect width="15" height="15" fill="white" transform="translate(0 0.5)"/>
</clipPath>
</defs>
</svg>
