<svg width="18" height="16" viewBox="0 0 18 16" fill="none" xmlns="http://www.w3.org/2000/svg">
<path d="M8.75 0.5C3.91751 0.5 0 3.85786 0 8C0 12.1421 3.91751 15.5 8.75 15.5C13.5825 15.5 17.5 12.1421 17.5 8C17.4948 3.85971 13.5803 0.504482 8.75 0.5ZM8.75 2.375C10.1118 2.37512 11.4395 2.74054 12.5468 3.41999L3.40666 11.2537C1.3045 8.72899 1.98823 5.2216 4.93377 3.41976C6.04741 2.73854 7.38186 2.37321 8.75 2.375ZM8.75 13.625C7.38838 13.6249 6.06098 13.2595 4.95397 12.58L14.0933 4.74564C16.1959 7.27016 15.5127 10.7776 12.5675 12.5798C11.4535 13.2614 10.1186 13.6269 8.75 13.625Z" fill="#616161"/>
</svg>
