<svg width="19" height="16" viewBox="0 0 19 16" fill="none" xmlns="http://www.w3.org/2000/svg">
<g clip-path="url(#clip0_109_291)">
<path d="M4.84324 13.1954C4.41745 13.1955 4.0091 13.0263 3.70827 12.725L0.276905 9.29487C-0.092312 8.92554 -0.092312 8.32684 0.276905 7.95751C0.646241 7.58829 1.24493 7.58829 1.61427 7.95751L4.84324 11.1865L13.3857 2.64399C13.7551 2.27478 14.3537 2.27478 14.7231 2.64399C15.0923 3.01333 15.0923 3.61202 14.7231 3.98136L5.9782 12.725C5.67737 13.0263 5.26902 13.1955 4.84324 13.1954Z" fill="#69A6ED"/>
</g>
<g clip-path="url(#clip1_109_291)">
<path d="M8.84324 13.6329C8.41745 13.633 8.0091 13.4638 7.70827 13.1625L4.27691 9.73237C3.90769 9.36304 3.90769 8.76434 4.27691 8.39501C4.64624 8.02579 5.24493 8.02579 5.61427 8.39501L8.84324 11.624L17.3857 3.08149C17.7551 2.71228 18.3537 2.71228 18.7231 3.08149C19.0923 3.45083 19.0923 4.04952 18.7231 4.41886L9.9782 13.1625C9.67737 13.4638 9.26902 13.633 8.84324 13.6329Z" fill="#69A6ED"/>
</g>
<rect x="2.26421" y="8.56422" width="3.62635" height="3.68" transform="rotate(-45 2.26421 8.56422)" fill="#F8F8F8"/>
<defs>
<clipPath id="clip0_109_291">
<rect width="15" height="15" fill="white" transform="translate(0 0.28125)"/>
</clipPath>
<clipPath id="clip1_109_291">
<rect width="15" height="15" fill="white" transform="translate(4 0.71875)"/>
</clipPath>
</defs>
</svg>
