<svg width="107" height="20" viewBox="0 0 107 20" fill="none" xmlns="http://www.w3.org/2000/svg">
<path d="M5.32 15L0.28 0.899999H4.08L7.38 11.1H6.46L10.14 0.899999H12.78L16.1 11.1H15.22L18.78 0.899999H22.34L17.28 15H14.32L11.12 5.82H11.58L8.3 15H5.32ZM23.7172 15V0.279999H27.2772V6.62H26.9772C27.3105 5.96667 27.7839 5.47333 28.3972 5.14C29.0105 4.79333 29.7105 4.62 30.4972 4.62C31.6839 4.62 32.5705 4.97333 33.1572 5.68C33.7439 6.38667 34.0372 7.46 34.0372 8.9V15H30.4772V9.06C30.4772 8.44667 30.3639 8.00667 30.1372 7.74C29.9239 7.47333 29.5972 7.34 29.1572 7.34C28.5839 7.34 28.1239 7.52 27.7772 7.88C27.4439 8.24 27.2772 8.71333 27.2772 9.3V15H23.7172ZM40.1781 15.22C39.2981 15.22 38.5248 15.0133 37.8581 14.6C37.1915 14.1733 36.6648 13.56 36.2781 12.76C35.9048 11.96 35.7181 11.0133 35.7181 9.92C35.7181 8.81333 35.9048 7.86667 36.2781 7.08C36.6648 6.28 37.1915 5.67333 37.8581 5.26C38.5248 4.83333 39.2981 4.62 40.1781 4.62C40.9648 4.62 41.6715 4.80667 42.2981 5.18C42.9381 5.55333 43.3581 6.04 43.5581 6.64H43.3581L43.5781 4.84H46.9981C46.9581 5.29333 46.9181 5.75333 46.8781 6.22C46.8515 6.68667 46.8381 7.14667 46.8381 7.6V15H43.3181L43.2781 13.28H43.5181C43.3181 13.8667 42.8981 14.34 42.2581 14.7C41.6315 15.0467 40.9381 15.22 40.1781 15.22ZM41.3181 12.58C41.9181 12.58 42.4048 12.3733 42.7781 11.96C43.1515 11.5333 43.3381 10.8533 43.3381 9.92C43.3381 8.98667 43.1515 8.31333 42.7781 7.9C42.4048 7.47333 41.9181 7.26 41.3181 7.26C40.7181 7.26 40.2315 7.47333 39.8581 7.9C39.4848 8.31333 39.2981 8.98667 39.2981 9.92C39.2981 10.8533 39.4781 11.5333 39.8381 11.96C40.2115 12.3733 40.7048 12.58 41.3181 12.58ZM54.2492 15.22C52.8092 15.22 51.7226 14.88 50.9892 14.2C50.2692 13.5067 49.9092 12.46 49.9092 11.06V7.46H48.0092V4.84H49.9092V2.44L53.4692 1.6V4.84H55.9492V7.46H53.4692V10.92C53.4692 11.5067 53.6026 11.9 53.8692 12.1C54.1359 12.2867 54.4559 12.38 54.8292 12.38C55.0559 12.38 55.2492 12.3667 55.4092 12.34C55.5826 12.3 55.7626 12.2467 55.9492 12.18V14.92C55.6559 15.04 55.3626 15.12 55.0692 15.16C54.7892 15.2 54.5159 15.22 54.2492 15.22ZM61.2305 15.22C60.2838 15.22 59.4238 15.1267 58.6505 14.94C57.8905 14.74 57.2438 14.4733 56.7105 14.14L57.5705 11.82C58.0905 12.1133 58.6705 12.3533 59.3105 12.54C59.9638 12.7267 60.6105 12.82 61.2505 12.82C61.7571 12.82 62.1238 12.7467 62.3505 12.6C62.5905 12.44 62.7105 12.2333 62.7105 11.98C62.7105 11.78 62.6371 11.62 62.4905 11.5C62.3438 11.38 62.1238 11.2933 61.8305 11.24L59.6705 10.86C58.8171 10.7 58.1505 10.3867 57.6705 9.92C57.2038 9.44 56.9705 8.82 56.9705 8.06C56.9705 7.36667 57.1571 6.76667 57.5305 6.26C57.9038 5.74 58.4371 5.34 59.1305 5.06C59.8238 4.76667 60.6438 4.62 61.5905 4.62C62.3638 4.62 63.0971 4.70667 63.7905 4.88C64.4971 5.05333 65.1105 5.32667 65.6305 5.7L64.7105 7.96C64.2971 7.68 63.8105 7.45333 63.2505 7.28C62.7038 7.09333 62.1905 7 61.7105 7C61.1371 7 60.7305 7.08667 60.4905 7.26C60.2505 7.42 60.1305 7.62 60.1305 7.86C60.1305 8.04667 60.1971 8.20667 60.3305 8.34C60.4638 8.46 60.6771 8.54667 60.9705 8.6L63.1305 8.98C64.0105 9.12667 64.6838 9.43333 65.1505 9.9C65.6305 10.3533 65.8705 10.9733 65.8705 11.76C65.8705 12.4933 65.6705 13.12 65.2705 13.64C64.8838 14.1467 64.3438 14.54 63.6505 14.82C62.9571 15.0867 62.1505 15.22 61.2305 15.22ZM65.9077 15L72.5077 0.899999H75.5077L82.1477 15H78.4477L76.7477 11.12L78.1677 12.14H69.8877L71.2877 11.12L69.6077 15H65.9077ZM73.9877 4.7L71.6477 10.28L71.0877 9.34H76.9477L76.4477 10.28L74.0877 4.7H73.9877ZM82.8188 19.32V7.6C82.8188 7.14667 82.8054 6.68667 82.7788 6.22C82.7521 5.75333 82.7121 5.29333 82.6588 4.84H86.0988L86.3188 6.64H86.1188C86.3054 6.04 86.7188 5.55333 87.3588 5.18C87.9988 4.80667 88.7121 4.62 89.4988 4.62C90.3788 4.62 91.1521 4.83333 91.8187 5.26C92.4854 5.67333 93.0054 6.28 93.3788 7.08C93.7654 7.86667 93.9588 8.81333 93.9588 9.92C93.9588 11.0133 93.7654 11.96 93.3788 12.76C93.0054 13.56 92.4854 14.1733 91.8187 14.6C91.1521 15.0133 90.3788 15.22 89.4988 15.22C88.7254 15.22 88.0254 15.0467 87.3988 14.7C86.7721 14.34 86.3588 13.8667 86.1588 13.28H86.3788V19.32H82.8188ZM88.3588 12.58C88.9721 12.58 89.4588 12.3733 89.8188 11.96C90.1921 11.5333 90.3788 10.8533 90.3788 9.92C90.3788 8.98667 90.1921 8.31333 89.8188 7.9C89.4588 7.47333 88.9721 7.26 88.3588 7.26C87.7588 7.26 87.2721 7.47333 86.8988 7.9C86.5254 8.31333 86.3388 8.98667 86.3388 9.92C86.3388 10.8533 86.5254 11.5333 86.8988 11.96C87.2721 12.3733 87.7588 12.58 88.3588 12.58ZM95.6898 19.32V7.6C95.6898 7.14667 95.6765 6.68667 95.6498 6.22C95.6232 5.75333 95.5832 5.29333 95.5298 4.84H98.9698L99.1898 6.64H98.9898C99.1765 6.04 99.5898 5.55333 100.23 5.18C100.87 4.80667 101.583 4.62 102.37 4.62C103.25 4.62 104.023 4.83333 104.69 5.26C105.357 5.67333 105.877 6.28 106.25 7.08C106.637 7.86667 106.83 8.81333 106.83 9.92C106.83 11.0133 106.637 11.96 106.25 12.76C105.877 13.56 105.357 14.1733 104.69 14.6C104.023 15.0133 103.25 15.22 102.37 15.22C101.597 15.22 100.897 15.0467 100.27 14.7C99.6432 14.34 99.2298 13.8667 99.0298 13.28H99.2498V19.32H95.6898ZM101.23 12.58C101.843 12.58 102.33 12.3733 102.69 11.96C103.063 11.5333 103.25 10.8533 103.25 9.92C103.25 8.98667 103.063 8.31333 102.69 7.9C102.33 7.47333 101.843 7.26 101.23 7.26C100.63 7.26 100.143 7.47333 99.7698 7.9C99.3965 8.31333 99.2098 8.98667 99.2098 9.92C99.2098 10.8533 99.3965 11.5333 99.7698 11.96C100.143 12.3733 100.63 12.58 101.23 12.58Z" fill="black"/>
</svg>
